<?xml version="1.0" encoding="UTF-8" standalone="yes"?>
<svg xmlns="http://www.w3.org/2000/svg" xmlns:xlink="http://www.w3.org/1999/xlink" width="999.310913px" height="847.994568px" version="1.1" viewBox="358.808289 356.054810 499.655457 423.997314">
  <!--
	Exported with Concepts: Smarter Sketching
	Version: 827 on iOS 13.4
	https://concepts.app/
	-->
  <title>Logo</title>
  <desc>Drawing exported from Concepts: Smarter Sketching</desc>
  <g id="Pen" opacity="1.000">
    <path id="STROKE_662abd2d-5669-47c2-ad1f-c122e363231a" opacity="1.000" fill="none" stroke="#50514f" stroke-width="4.568" stroke-opacity="1.000" stroke-linecap="round" stroke-linejoin="round" d="M 382.444 554.272 Q 382.463 554.111 381.274 553.241 Q 381.131 554.647 382.874 561.713 Q 384.617 568.779 385.252 576.304 Q 385.887 583.830 386.051 594.430 Q 386.214 605.029 386.279 613.528 Q 386.343 622.027 386.219 631.281 Q 386.095 640.536 384.568 655.741 Q 383.041 670.945 381.875 678.982 Q 380.709 687.020 379.191 697.176 Q 377.674 707.333 375.714 718.703 Q 373.753 730.073 372.485 736.748 Q 371.216 743.423 370.411 747.241 Q 369.606 751.060 367.326 770.315 Q 368.069 771.066 373.432 771.323 Q 378.796 771.581 388.888 771.483 Q 398.980 771.386 410.606 771.221 Q 422.233 771.057 435.495 770.846 Q 448.758 770.634 458.840 770.538 Q 468.923 770.441 479.049 770.286 Q 489.175 770.131 505.570 770.132 Q 521.964 770.133 530.590 769.857 Q 539.216 769.581 545.061 769.216 Q 550.906 768.851 560.302 768.673 Q 569.699 768.495 579.086 768.938 Q 588.474 769.381 596.227 769.612 Q 603.980 769.843 611.231 768.100 Q 618.483 766.357 620.324 764.990 "></path>
    <path id="STROKE_0e8cbc36-0150-499e-8925-070de41f3019" opacity="1.000" fill="none" stroke="#50514f" stroke-width="4.401" stroke-opacity="1.000" stroke-linecap="round" stroke-linejoin="round" d="M 389.322 548.813 Q 396.153 547.398 402.794 546.193 Q 409.435 544.988 415.878 544.100 Q 422.320 543.211 428.530 542.576 Q 434.740 541.940 443.695 541.517 Q 452.650 541.094 463.354 541.267 Q 474.058 541.439 483.504 541.725 Q 492.950 542.010 501.296 542.368 Q 509.641 542.726 516.879 543.076 Q 524.116 543.427 531.675 543.809 Q 539.234 544.192 547.112 544.576 Q 554.989 544.961 561.149 545.218 Q 567.310 545.476 573.981 545.717 Q 580.652 545.958 589.729 546.313 Q 598.805 546.669 602.929 546.820 Q 607.053 546.971 609.746 547.736 Q 612.439 548.501 614.233 551.990 Q 616.026 555.479 617.817 561.939 Q 619.608 568.400 620.764 573.805 Q 621.921 579.211 622.708 585.748 Q 623.494 592.286 623.892 598.843 Q 624.291 605.400 624.499 612.698 Q 624.707 619.997 624.761 626.474 Q 624.816 632.951 624.757 641.431 Q 624.699 649.911 624.321 661.945 Q 623.943 673.979 623.622 683.005 Q 623.301 692.032 622.930 701.950 Q 622.559 711.868 622.200 717.163 Q 621.840 722.458 622.560 734.467 Q 623.280 746.476 624.704 753.227 Q 626.129 759.979 627.149 764.098 "></path>
    <path id="STROKE_81b8a443-2734-4b36-b426-56042bc00be5" opacity="1.000" fill="none" stroke="#50514f" stroke-width="4.473" stroke-opacity="1.000" stroke-linecap="round" stroke-linejoin="round" d="M 500.161 529.582 Q 500.260 527.476 500.586 521.663 Q 500.912 515.849 501.624 508.518 Q 502.336 501.186 503.951 492.940 Q 505.565 484.693 508.297 477.201 Q 511.029 469.710 514.504 463.731 Q 517.979 457.752 520.120 454.630 Q 522.260 451.507 524.321 448.707 Q 526.382 445.906 528.679 442.900 Q 530.977 439.895 534.800 435.206 Q 538.624 430.518 542.500 426.179 Q 546.376 421.840 549.081 418.733 Q 551.787 415.626 561.440 406.614 Q 571.092 397.601 576.506 393.543 Q 581.921 389.486 587.689 385.849 Q 593.458 382.213 597.551 379.895 Q 601.644 377.577 610.859 373.810 Q 620.073 370.044 625.783 368.590 Q 631.492 367.135 638.271 365.999 Q 645.050 364.863 649.316 364.352 Q 653.583 363.840 664.240 363.398 Q 674.897 362.955 686.838 363.849 Q 698.779 364.743 704.576 365.669 Q 710.374 366.594 715.450 367.557 Q 720.527 368.520 732.023 371.876 Q 743.518 375.233 752.311 378.992 Q 761.103 382.751 768.277 387.395 Q 775.451 392.039 778.904 394.665 Q 782.358 397.291 786.405 401.035 Q 790.452 404.779 792.303 406.755 Q 794.154 408.730 795.714 410.450 Q 797.274 412.170 799.774 415.127 Q 802.273 418.085 806.031 423.153 Q 809.790 428.222 814.551 436.169 Q 819.312 444.116 823.607 453.020 Q 827.902 461.924 830.867 468.338 Q 833.831 474.752 836.122 479.946 Q 838.412 485.140 840.700 491.486 Q 842.987 497.832 844.038 501.129 Q 845.089 504.425 846.494 509.423 Q 847.900 514.421 848.910 520.681 Q 849.921 526.940 850.110 533.956 Q 850.299 540.973 849.864 546.592 Q 849.430 552.212 847.598 558.189 Q 845.766 564.166 844.453 567.573 Q 843.141 570.980 840.474 576.298 Q 837.807 581.616 835.536 584.982 Q 833.265 588.347 831.932 590.350 Q 830.599 592.352 826.136 597.699 Q 821.673 603.046 817.127 607.369 Q 812.580 611.692 807.130 616.230 Q 801.680 620.768 794.135 626.231 Q 786.590 631.693 782.001 634.860 Q 777.413 638.026 774.627 639.915 Q 771.841 641.804 764.298 646.390 Q 756.756 650.976 750.037 654.621 Q 743.318 658.265 735.834 661.485 Q 728.351 664.704 720.556 666.867 Q 712.762 669.030 708.703 669.869 Q 704.644 670.708 702.408 671.127 Q 700.171 671.545 695.329 671.852 Q 690.486 672.158 687.570 672.073 Q 684.654 671.989 682.460 671.707 Q 680.266 671.426 676.824 669.575 Q 673.382 667.725 671.521 666.460 "></path>
    <path id="STROKE_8c78ac3c-25d4-498e-a72b-30e260d1caa5" opacity="1.000" fill="none" stroke="#50514f" stroke-width="5.938" stroke-opacity="1.000" stroke-linecap="round" stroke-linejoin="round" d="M 696.179 627.014 Q 698.549 624.361 701.985 620.945 Q 702.108 620.775 699.583 623.106 Q 697.058 625.436 691.875 630.285 Q 686.692 635.134 681.361 639.523 Q 676.029 643.913 670.546 647.850 Q 665.063 651.787 660.853 654.659 Q 656.643 657.531 652.272 660.177 Q 647.900 662.822 644.805 664.953 Q 641.710 667.083 638.121 670.253 Q 638.095 670.349 638.331 670.501 Q 638.566 670.654 641.341 671.028 Q 644.116 671.401 652.440 675.827 Q 660.763 680.252 667.401 684.248 Q 674.040 688.244 681.875 696.971 Q 689.711 705.698 691.312 707.687 "></path>
  </g>
</svg>